/* XPM */
static char * mini_rars_xpm[] = {
"16 16 10 1",
" 	c None",
".	c #0400FF",
"+	c #ABAAFF",
"@	c #FFFFFF",
"#	c #E2E2FF",
"$	c #8E8DFF",
"%	c #5755FF",
"&	c #7371FF",
"*	c #1F1CFF",
"=	c #3B38FF",
"     ......     ",
"   ..........   ",
"  ............  ",
" ...+@@@@@+.... ",
" ...+@+++#@$... ",
"....+@....@+....",
"....+@...%@&....",
"....+@@@@@$.....",
"....+@+++@#*....",
"....+@...+@%....",
"....+@...+@%....",
" ...+@...+@&... ",
" ...=%...*%=... ",
"  ............  ",
"   ..........   ",
"     ......     "};
